<svg xmlns="http://www.w3.org/2000/svg" xmlns:xlink="http://www.w3.org/1999/xlink"><symbol id="icn-arrow" viewBox="0 0 24 24"><path d="M19 9l-7 7-7-7" stroke="currentColor" stroke-width="2" stroke-linecap="round" stroke-linejoin="round"/></symbol><symbol id="icn-close"><path d="M2 14L14 2M2 2l12 12" fill="none" stroke="#000" stroke-width="2"/></symbol><symbol id="icn-fb" viewBox="0 0 24 24"><path d="M2.002 12.002a10.005 10.005 0 008.437 9.879v-6.989H7.902v-2.89h2.54v-2.2a3.528 3.528 0 013.773-3.9c.75.012 1.5.079 2.24.2v2.459h-1.264a1.446 1.446 0 00-1.628 1.563v1.878h2.771l-.443 2.891h-2.328v6.988a10 10 0 10-11.561-9.879z" fill="currentColor"/></symbol><symbol id="icn-git" viewBox="0 0 20 20"><path fill-rule="evenodd" clip-rule="evenodd" d="M9.97.24C4.464.24 0 4.705 0 10.21c0 4.403 2.875 8.134 6.789 9.48.49.06.673-.245.673-.49v-1.712c-2.753.611-3.364-1.346-3.364-1.346-.428-1.162-1.101-1.468-1.101-1.468-.917-.611.061-.611.061-.611.979.06 1.53 1.04 1.53 1.04.917 1.528 2.323 1.1 2.874.856a2.13 2.13 0 01.611-1.346c-2.201-.245-4.526-1.1-4.526-4.954 0-1.101.367-1.957 1.04-2.691-.061-.184-.428-1.223.122-2.569 0 0 .857-.245 2.753 1.04.795-.245 1.651-.306 2.507-.306.857 0 1.713.122 2.508.306 1.896-1.285 2.752-1.04 2.752-1.04.55 1.346.184 2.385.123 2.63a3.956 3.956 0 011.04 2.691c0 3.853-2.325 4.648-4.527 4.893.367.306.673.918.673 1.835V19.2c0 .245.184.55.673.49A9.98 9.98 0 0020 10.21C19.939 4.704 15.474.24 9.97.24z" fill="currentColor"/></symbol><symbol id="icn-in" viewBox="0 0 15 15"><path d="M15 8.744v5.516h-3.229V9.08c0-1.277-.47-2.152-1.614-2.152-.874 0-1.413.606-1.614 1.144-.068.202-.135.47-.135.807v5.381H5.18s.068-8.744 0-9.619h3.23v1.346c.403-.673 1.21-1.615 2.891-1.615 2.086 0 3.7 1.413 3.7 4.372zM1.816 0C.74 0 0 .74 0 1.682c0 .941.673 1.681 1.749 1.681 1.143 0 1.816-.74 1.816-1.681C3.632.672 2.96 0 1.816 0zM.202 14.26H3.43V4.641H.202v9.62z" fill="currentColor"/></symbol><symbol id="icn-inst" viewBox="0 0 24 24"><path d="M12.002 21.041c-2.46 0-2.75-.013-3.71-.055a6.584 6.584 0 01-2.185-.45 4.619 4.619 0 01-2.63-2.631 6.591 6.591 0 01-.419-2.187c-.056-.958-.056-1.272-.056-3.713 0-2.467.013-2.755.056-3.71a6.59 6.59 0 01.419-2.184A4.61 4.61 0 016.11 3.479a6.533 6.533 0 012.184-.42c.955-.054 1.269-.054 3.708-.054 2.48 0 2.765.013 3.71.054.749.014 1.49.156 2.19.42a4.615 4.615 0 012.633 2.632c.267.71.41 1.46.421 2.217.056.958.056 1.271.056 3.711s-.014 2.76-.056 3.707a6.6 6.6 0 01-.42 2.189 4.624 4.624 0 01-2.634 2.632 6.61 6.61 0 01-2.186.419c-.955.055-1.268.055-3.714.055zm-.034-16.453c-2.446 0-2.7.012-3.655.055a4.99 4.99 0 00-1.669.311 2.99 2.99 0 00-1.719 1.712c-.2.54-.305 1.111-.311 1.687-.053.969-.053 1.223-.053 3.652 0 2.4.009 2.691.053 3.654.009.57.114 1.135.311 1.67.306.787.93 1.409 1.719 1.711a4.92 4.92 0 001.669.311c.968.056 1.223.056 3.655.056 2.453 0 2.707-.012 3.654-.056a4.961 4.961 0 001.67-.311 3 3 0 001.71-1.709c.2-.54.305-1.112.311-1.688h.011c.043-.956.043-1.211.043-3.654 0-2.443-.011-2.7-.054-3.655a5.057 5.057 0 00-.311-1.668 3 3 0 00-1.71-1.712 4.94 4.94 0 00-1.67-.311c-.967-.055-1.22-.055-3.654-.055zm.034 12.036A4.623 4.623 0 1116.622 12a4.629 4.629 0 01-4.62 4.624zm0-7.626a3 3 0 103 3 3.007 3.007 0 00-3-3zm4.8-.713a1.078 1.078 0 11.008-2.156 1.078 1.078 0 01-.008 2.156z" fill="currentColor"/></symbol><symbol id="icn-lock" viewBox="0 0 12 16"><path d="M10.21 5.728h-.73V4.27A3.648 3.648 0 005.834.623 3.648 3.648 0 002.188 4.27v1.458h-.73C.656 5.728 0 6.384 0 7.187v7.292c0 .802.656 1.459 1.458 1.459h8.751c.803 0 1.459-.657 1.459-1.459V7.187c0-.803-.656-1.459-1.459-1.459zm-4.376 6.563a1.463 1.463 0 01-1.459-1.458c0-.802.657-1.459 1.459-1.459s1.458.657 1.458 1.459-.656 1.458-1.458 1.458zM3.646 5.728V4.27c0-1.211.977-2.188 2.188-2.188 1.21 0 2.188.977 2.188 2.188v1.458H3.646z" fill="currentColor"/></symbol><symbol id="icn-mail" viewBox="0 0 24 24"><path d="M20 5H4a1 1 0 00-1 1v12a1 1 0 001 1h16a1 1 0 001-1V6a1 1 0 00-1-1z" stroke="currentColor" stroke-width="2" stroke-linecap="round" stroke-linejoin="round"/><path d="M3 6l9.257 7L21 6" stroke="currentColor" stroke-width="2" stroke-linecap="round" stroke-linejoin="round"/></symbol><symbol id="icn-map" viewBox="0 0 24 24"><path d="M12 11a2 2 0 100-4 2 2 0 000 4z" stroke="currentColor" stroke-width="2" stroke-linecap="round" stroke-linejoin="round"/><path d="M12 21s7-4.846 7-11.077a6.885 6.885 0 00-2.05-4.895A7.04 7.04 0 0012 3a7.04 7.04 0 00-4.95 2.028A6.885 6.885 0 005 9.923C5 16.153 12 21 12 21z" stroke="currentColor" stroke-width="2" stroke-linecap="round" stroke-linejoin="round"/></symbol><symbol id="icn-skype" viewBox="0 0 21 21"><path d="M20.318 12.068c.068-.545.136-1.022.136-1.568 0-5.455-4.431-9.955-9.954-9.955-.545 0-1.023.069-1.568.137A5.84 5.84 0 006.136 0 6.11 6.11 0 000 6.136c0 .955.205 1.91.682 2.796C.614 9.477.545 9.955.545 10.5c0 5.454 4.432 9.954 9.955 9.954.546 0 1.023-.068 1.568-.136.886.41 1.841.682 2.796.682A6.11 6.11 0 0021 14.864c0-.955-.273-1.91-.682-2.796zm-5.659 2.046a2.55 2.55 0 01-.886 1.022c-.41.273-.819.478-1.364.614a7.603 7.603 0 01-1.84.204c-1.433 0-2.592-.34-3.41-.954-.477-.41-.886-.886-1.09-1.5-.274-.546.204-1.227.886-1.227h.204c.41 0 .818.273.955.613.136.341.34.614.613.819.41.34 1.023.477 1.773.477.682 0 1.227-.136 1.636-.341.41-.205.614-.614.614-1.023 0-.204-.068-.34-.136-.477-.069-.136-.273-.273-.41-.341-.204-.136-.409-.204-.75-.273-.272-.068-.613-.204-1.022-.273l-.41-.136c-.477-.136-1.022-.272-1.431-.409a5.115 5.115 0 01-1.227-.545 2.072 2.072 0 01-.819-.887c-.204-.34-.272-.818-.272-1.363 0-.546.136-1.023.34-1.432.205-.41.546-.75.887-.955.41-.272.818-.477 1.364-.545a5.966 5.966 0 011.636-.205 7.01 7.01 0 011.773.205c.545.136.954.34 1.363.682.41.272.682.613.887 1.09.34.614-.137 1.432-.887 1.432h-.204c-.41 0-.75-.204-.955-.545A3.752 3.752 0 0012 7.227c-.34-.272-.886-.409-1.5-.409s-1.09.137-1.432.341c-.34.205-.477.546-.477.886 0 .205.068.341.136.478a.698.698 0 00.41.34c.204.069.408.205.681.273.273.069.614.137 1.023.273.409.068.75.205 1.159.273.34.068.682.204 1.023.273.34.136.613.272.886.409.273.136.477.34.682.545.205.205.34.477.409.75.136.273.136.682.136 1.091-.136.477-.272.954-.477 1.364z" fill="currentColor"/></symbol><symbol id="icn-tel" viewBox="0 0 24 24"><path d="M7.646 3H4.895A1.895 1.895 0 003 4.895C3 13.789 10.21 21 19.105 21A1.895 1.895 0 0021 19.105v-2.75a2 2 0 00-1.257-1.858l-2.636-1.054a2 2 0 00-2.023.32l-.68.568a2 2 0 01-2.695-.122L9.79 12.29a2 2 0 01-.122-2.694l.568-.681a2 2 0 00.32-2.023L9.503 4.257A2 2 0 007.646 3z" stroke="currentColor" stroke-width="2" stroke-linecap="round" stroke-linejoin="round"/></symbol><symbol id="icn-tg" viewBox="0 0 19 17"><path d="M19 .602l-3.005 15.69s-.42 1.088-1.576.566l-6.934-5.505-.033-.017c.937-.87 8.2-7.633 8.518-7.94.491-.475.186-.757-.384-.399l-10.73 7.056L.719 8.611s-.652-.24-.714-.762c-.064-.522.735-.805.735-.805L17.613.189S19-.442 19 .602z" fill="currentColor"/></symbol><symbol id="icn-twit" viewBox="0 0 24 24"><path d="M19.995 6.688a4.3 4.3 0 001.887-2.374 8.59 8.59 0 01-2.725 1.041 4.3 4.3 0 00-7.316 3.915 12.184 12.184 0 01-8.844-4.484 4.3 4.3 0 001.328 5.73 4.276 4.276 0 01-1.943-.538v.054a4.294 4.294 0 003.443 4.208 4.3 4.3 0 01-1.938.074 4.3 4.3 0 004.009 2.98 8.61 8.61 0 01-5.33 1.837c-.343 0-.685-.02-1.025-.059A12.148 12.148 0 008.12 21 12.127 12.127 0 0020.33 8.789c0-.186-.004-.371-.013-.555a8.718 8.718 0 002.142-2.222 8.58 8.58 0 01-2.464.676z" fill="currentColor"/></symbol><symbol id="icn-visible" viewBox="0 0 18 18"><path d="M9.17 3.568c-3.454 0-6.404 2.149-7.6 5.182 1.196 3.033 4.146 5.181 7.6 5.181 3.454 0 6.404-2.148 7.6-5.181-1.196-3.033-4.146-5.182-7.6-5.182zm0 8.636a3.456 3.456 0 010-6.909 3.456 3.456 0 010 6.909zm0-5.527A2.07 2.07 0 007.097 8.75a2.07 2.07 0 002.073 2.072 2.07 2.07 0 002.072-2.072A2.07 2.07 0 009.17 6.677z" fill="currentColor"/></symbol><symbol id="icn-wp" viewBox="0 0 21 21"><path d="M17.927 3.063A10.428 10.428 0 0010.537 0C4.757 0 .073 4.667.073 10.427c0 1.823.512 3.646 1.39 5.177L0 21l5.561-1.458c1.537.802 3.22 1.24 4.976 1.24 5.78 0 10.463-4.667 10.463-10.428-.073-2.698-1.098-5.323-3.073-7.291zm-2.342 11.083c-.22.583-1.244 1.166-1.756 1.24a4.104 4.104 0 01-1.61-.073c-.365-.146-.877-.292-1.463-.584-2.634-1.094-4.317-3.719-4.463-3.937-.147-.146-1.098-1.386-1.098-2.698 0-1.313.659-1.896.878-2.188.22-.291.512-.291.732-.291h.512c.146 0 .366-.073.585.437.22.51.732 1.823.805 1.896a.463.463 0 010 .437 1.525 1.525 0 01-.292.438c-.147.146-.293.364-.366.437-.147.146-.293.292-.147.51.147.293.659 1.095 1.464 1.824 1.024.875 1.83 1.166 2.122 1.312.293.146.439.073.585-.073.146-.146.659-.729.805-1.02.146-.292.366-.22.585-.146.22.073 1.537.729 1.757.875.292.146.438.218.512.291.073.22.073.73-.147 1.313z" fill="currentColor"/></symbol></svg>